<svg xmlns="http://www.w3.org/2000/svg" width="127" height="140" viewBox="0 0 127 140">
    <g fill="none" fill-rule="evenodd">
        <path fill="#2EB9FF" d="M116.045 6.427c.69.52.827 1.5.308 2.189l-6.584 8.736a1.563 1.563 0 0 1-2.496-1.88l6.584-8.737c.52-.69 1.499-.827 2.188-.308zm10.339 16.905c.392.769.086 1.71-.683 2.102l-9.747 4.966a1.563 1.563 0 0 1-1.419-2.785l9.747-4.966a1.563 1.563 0 0 1 2.102.683zM95.404.965c.848.165 1.4.985 1.236 1.833l-2.087 10.738a1.563 1.563 0 0 1-3.068-.597l2.087-10.738c.165-.847.985-1.4 1.832-1.236zM60 140c-33.137 0-60-26.863-60-60s26.863-60 60-60 60 26.863 60 60-26.863 60-60 60zm20.439-37.29a6.813 6.813 0 0 0 0-13.626v4.542a2.271 2.271 0 0 1 0 4.542H39.56a2.271 2.271 0 1 1 0-4.542 4.542 4.542 0 0 0 4.542-4.542V75.458c0-7.208 4.828-13.226 11.403-15.172-.016-.243-.048-.477-.048-.725 0-3.763 2.033-6.812 4.542-6.812 2.51 0 4.542 3.05 4.542 6.812 0 .248-.032.482-.048.723 6.575 1.948 11.403 7.966 11.403 15.174v13.626a4.542 4.542 0 0 0 4.542 4.542V75.458c0-8.114-4.742-15.104-11.594-18.404-.915-5.06-4.519-8.847-8.845-8.847-4.326 0-7.93 3.788-8.845 8.847-6.852 3.3-11.594 10.29-11.594 18.404v13.626a6.813 6.813 0 1 0 0 13.626H80.44zM60 107.25c-2.516 0-4.687-.92-5.868-2.27h-5.085c1.265 3.91 5.668 6.812 10.953 6.812 5.285 0 9.686-2.902 10.953-6.812h-5.085c-1.18 1.35-3.352 2.27-5.868 2.27z"/>
    </g>
</svg>
