<svg xmlns="http://www.w3.org/2000/svg" xmlns:xlink="http://www.w3.org/1999/xlink" width="38" height="32" viewBox="0 0 38 32">
    <defs>
        <path id="a" d="M33.9 5.691l-18.982 8.192c-.825.264-1.4.286-1.726.066-.488-.33-4.332-2.943-4.572-3.08-.24-.137-.736-.068-.762.427-.018.33 1.138 2.788 3.469 7.375a2 2 0 0 0 2.807.875L35.32 7.314C37.022 9.562 38 12.191 38 15c0 8.284-8.507 15-19 15-2.642 0-5.158-.426-7.445-1.195-.86-.29-4.953 3.109-5.743 2.726-.91-.44 1.496-4.677.696-5.229C2.52 23.552 0 19.51 0 15 0 6.716 8.507 0 19 0c6.039 0 11.42 2.224 14.9 5.691z"/>
    </defs>
    <use fill="#42CB5D" fill-rule="evenodd" xlink:href="#a"/>
</svg>
