<svg xmlns="http://www.w3.org/2000/svg" width="568" height="131" viewBox="0 0 568 131">
    <g fill="none" fill-rule="evenodd">
        <g opacity=".294">
            <path fill="#FFF" d="M59 1a1 1 0 0 1 1 1v16a1 1 0 0 1-2 0V2a1 1 0 0 1 1-1zm0 36a1 1 0 0 1 1 1v16a1 1 0 0 1-2 0V38a1 1 0 0 1 1-1zm27-9a1 1 0 0 1-1 1H69a1 1 0 0 1 0-2h16a1 1 0 0 1 1 1zm-36 0a1 1 0 0 1-1 1H33a1 1 0 0 1 0-2h16a1 1 0 0 1 1 1zm23.142-14.142a1 1 0 0 1 0 1.414l-6.364 6.364a1 1 0 0 1-1.414-1.414l6.364-6.364a1 1 0 0 1 1.414 0zM52.636 34.364a1 1 0 0 1 0 1.414l-6.364 6.364a1 1 0 1 1-1.414-1.414l6.364-6.364a1 1 0 0 1 1.414 0zm-7.778-20.506a1 1 0 0 1 1.414 0l6.364 6.364a1 1 0 0 1-1.414 1.414l-6.364-6.364a1 1 0 0 1 0-1.414zm20.506 20.506a1 1 0 0 1 1.414 0l6.364 6.364a1 1 0 1 1-1.414 1.414l-6.364-6.364a1 1 0 0 1 0-1.414z" opacity=".787"/>
            <path fill="#FFF" d="M5.535 66.245a.387.387 0 0 1 .51.196l2.516 5.65a.387.387 0 1 1-.706.315l-2.516-5.65a.387.387 0 0 1 .196-.51zm5.66 12.714a.387.387 0 0 1 .511.196l2.516 5.65a.387.387 0 0 1-.706.315L11 79.47a.387.387 0 0 1 .196-.511zm8.12-7.424a.387.387 0 0 1-.195.51l-5.65 2.516a.387.387 0 1 1-.315-.706l5.65-2.516a.387.387 0 0 1 .51.196zm-12.713 5.66a.387.387 0 0 1-.196.511l-5.65 2.516a.387.387 0 1 1-.315-.706L6.091 77a.387.387 0 0 1 .511.196zm5.95-8.632c.199.076.298.3.222.499l-1.247 3.248a.387.387 0 0 1-.722-.277l1.247-3.248c.076-.2.3-.299.5-.222zM8.533 79.029c.2.076.299.3.222.5L7.51 82.775a.387.387 0 1 1-.722-.277l1.247-3.248c.077-.2.3-.299.5-.222zm-5.971-6.02c.076-.198.3-.298.499-.222l3.248 1.247a.387.387 0 1 1-.277.722L2.785 73.51a.387.387 0 0 1-.222-.5zm10.466 4.018c.076-.199.3-.298.5-.222l3.247 1.247a.387.387 0 1 1-.277.722l-3.248-1.247a.387.387 0 0 1-.222-.5z"/>
            <g stroke="#FFF" stroke-linecap="round">
                <path d="M65.585 87.869a8.504 8.504 0 0 0-16.19.06M69.974 92.012a4.501 4.501 0 0 0-4.242-4.006M74.769 95.072a4.502 4.502 0 0 0-4.68-3.054M49.405 87.89a5.27 5.27 0 0 0-8.194 4.098M41 92a3 3 0 0 0-3 3M37.5 95.5h6.826m3.919 0h4.865m3.992 0h2.53m1.5 0h21.47m2.612 0h5.17"/>
            </g>
            <path stroke="#FFF" stroke-dasharray="1,1" stroke-linecap="round" d="M87 52c7.912 8.128 15.952 21.947 24.12 41.455" opacity=".423"/>
        </g>
        <g opacity=".454" transform="translate(374 1)">
            <path fill="#FFF" d="M157 5a1 1 0 0 1 1 1v16a1 1 0 1 1-2 0V6a1 1 0 0 1 1-1zm0 36a1 1 0 0 1 1 1v16a1 1 0 1 1-2 0V42a1 1 0 0 1 1-1zm27-9a1 1 0 0 1-1 1h-16a1 1 0 1 1 0-2h16a1 1 0 0 1 1 1zm-36 0a1 1 0 0 1-1 1h-16a1 1 0 1 1 0-2h16a1 1 0 0 1 1 1zm23.142-14.142a1 1 0 0 1 0 1.414l-6.364 6.364a1 1 0 0 1-1.414-1.414l6.364-6.364a1 1 0 0 1 1.414 0zm-20.506 20.506a1 1 0 0 1 0 1.414l-6.364 6.364a1 1 0 0 1-1.414-1.414l6.364-6.364a1 1 0 0 1 1.414 0zm-7.778-20.506a1 1 0 0 1 1.414 0l6.364 6.364a1 1 0 0 1-1.414 1.414l-6.364-6.364a1 1 0 0 1 0-1.414zm20.506 20.506a1 1 0 0 1 1.414 0l6.364 6.364a1 1 0 0 1-1.414 1.414l-6.364-6.364a1 1 0 0 1 0-1.414z" opacity=".486"/>
            <path fill="#FFF" d="M105 42a1 1 0 1 1 0-2 1 1 0 0 1 0 2zm4.243 1.757a1 1 0 1 1 1.414-1.414 1 1 0 0 1-1.414 1.414zM111 48a1 1 0 1 1 2 0 1 1 0 0 1-2 0zm-1.757 4.243a1 1 0 1 1 1.414 1.414 1 1 0 0 1-1.414-1.414zM105 54a1 1 0 1 1 0 2 1 1 0 0 1 0-2zm-4.243-1.757a1 1 0 1 1-1.414 1.414 1 1 0 0 1 1.414-1.414zM99 48a1 1 0 1 1-2 0 1 1 0 0 1 2 0zm1.757-4.243a1 1 0 1 1-1.414-1.414 1 1 0 0 1 1.414 1.414z" opacity=".515"/>
            <circle cx="95" cy="12" r="1" fill="#FFF"/>
            <circle cx="117.039" cy="2.039" r="2.039" stroke="#FFF"/>
            <path fill="#FFF" d="M133.535 73.245a.387.387 0 0 1 .51.196l2.516 5.65a.387.387 0 0 1-.706.315l-2.516-5.65a.387.387 0 0 1 .196-.51zm5.66 12.714a.387.387 0 0 1 .511.196l2.516 5.65a.387.387 0 0 1-.706.315L139 86.47a.387.387 0 0 1 .196-.511zm8.12-7.424a.387.387 0 0 1-.195.51l-5.65 2.516a.387.387 0 1 1-.315-.706l5.65-2.516a.387.387 0 0 1 .51.196zm-12.713 5.66a.387.387 0 0 1-.196.511l-5.65 2.516a.387.387 0 1 1-.315-.706l5.65-2.516a.387.387 0 0 1 .511.196zm5.95-8.632c.199.076.298.3.222.499l-1.247 3.248a.387.387 0 1 1-.722-.277l1.247-3.248c.076-.2.3-.299.5-.222zm-4.018 10.466c.2.076.299.3.222.5l-1.247 3.247a.387.387 0 1 1-.722-.277l1.247-3.248c.077-.2.3-.299.5-.222zm-5.971-6.02c.076-.198.3-.298.499-.222l3.248 1.247a.387.387 0 1 1-.277.722l-3.248-1.247a.387.387 0 0 1-.222-.5zm10.466 4.018c.076-.199.3-.298.5-.222l3.247 1.247a.387.387 0 1 1-.277.722l-3.248-1.247a.387.387 0 0 1-.222-.5z"/>
            <g stroke="#FFF" stroke-linecap="round" opacity=".616">
                <path d="M164.585 121.869a8.504 8.504 0 0 0-16.19.06M168.974 126.012a4.501 4.501 0 0 0-4.242-4.006M173.769 129.072a4.502 4.502 0 0 0-4.68-3.054M148.405 121.89a5.27 5.27 0 0 0-8.194 4.098M140 126a3 3 0 0 0-3 3M136.5 129.5h6.826m3.919 0h4.865m3.992 0h2.53m4.5 0h21.47m3.612 0h5.17"/>
            </g>
            <path fill="none" stroke="#FFF" stroke-linecap="round" d="M173.884 128.97c3.927-1.454 6.726-5.233 6.726-9.665 0-5.691-4.614-10.305-10.305-10.305-4.861 0-8.936 3.366-10.022 7.894" opacity=".589"/>
            <path stroke="#FFF" stroke-dasharray="1" stroke-linecap="round" d="M95.933 58.376c-13.666 14.76-19.948 33.943-18.843 57.547" opacity=".277"/>
            <path stroke="#FFF" stroke-dasharray="1" stroke-linecap="round" d="M112.199 70.866c5.278-6.036 12.798-12.273 22.562-18.71" opacity=".305"/>
            <path stroke="#FFF" stroke-linecap="round" d="M.033 72.104l4.284 2.667 4.79-2.667"/>
        </g>
    </g>
</svg>
