<?xml version="1.0" standalone="no"?><!DOCTYPE svg PUBLIC "-//W3C//DTD SVG 1.1//EN" "http://www.w3.org/Graphics/SVG/1.1/DTD/svg11.dtd"><svg t="1522832371379" class="icon" style="" viewBox="0 0 1024 1024" version="1.1" xmlns="http://www.w3.org/2000/svg" p-id="3287" xmlns:xlink="http://www.w3.org/1999/xlink" width="200" height="200"><defs><style type="text/css"></style></defs><path d="M243.2 179.2C202.24 238.08 179.2 314.88 179.2 409.6c0 140.8 110.08 325.12 332.8 552.96-87.04-122.88-161.28-240.64-225.28-358.4-58.88-115.2-74.24-256-43.52-424.96z" fill="#D5F1FF" p-id="3288"></path><path d="M512 0C284.16 0 128 156.16 128 409.6c0 158.72 115.2 353.28 348.16 588.8 20.48 20.48 51.2 20.48 71.68 0 230.4-232.96 348.16-430.08 348.16-588.8 0-253.44-156.16-409.6-384-409.6z m0 962.56C289.28 734.72 179.2 550.4 179.2 409.6c0-94.72 23.04-171.52 64-230.4 58.88-81.92 153.6-128 268.8-128 199.68 0 332.8 133.12 332.8 358.4 0 143.36-110.08 327.68-332.8 552.96z" fill="#2EB9FF" p-id="3289"></path><path d="M440.32 483.84c-30.72-43.52-43.52-92.16-35.84-145.92-12.8 20.48-20.48 46.08-20.48 71.68 0 64 46.08 115.2 107.52 125.44-17.92-12.8-33.28-28.16-51.2-51.2z" fill="#D5F1FF" p-id="3290"></path><path d="M512 230.4c-99.84 0-179.2 79.36-179.2 179.2s79.36 179.2 179.2 179.2 179.2-79.36 179.2-179.2-79.36-179.2-179.2-179.2z m0 307.2c-7.68 0-12.8 0-20.48-2.56-61.44-10.24-107.52-61.44-107.52-125.44 0-25.6 7.68-51.2 23.04-71.68 23.04-33.28 61.44-56.32 104.96-56.32 71.68 0 128 56.32 128 128s-56.32 128-128 128z" fill="#2EB9FF" p-id="3291"></path></svg>