<?xml version="1.0" standalone="no"?><!DOCTYPE svg PUBLIC "-//W3C//DTD SVG 1.1//EN" "http://www.w3.org/Graphics/SVG/1.1/DTD/svg11.dtd"><svg t="1523344337255" class="icon" style="" viewBox="0 0 1024 1024" version="1.1" xmlns="http://www.w3.org/2000/svg" p-id="1999" xmlns:xlink="http://www.w3.org/1999/xlink" width="200" height="200"><defs><style type="text/css"></style></defs><path d="M797.767442 964.465116h76.204651c40.483721-19.051163 14.288372-19.051163-76.204651 0zM197.655814 762.046512C123.832558 562.009302 88.111628 326.251163 76.204651 78.586047v-16.669768c-2.381395 0-4.762791 2.381395-7.144186 4.762791-2.381395 14.288372-4.762791 33.339535-4.762791 4.76279-2.381395 2.381395-4.762791 7.144186-4.76279 11.906977v857.302326c0 14.288372 9.525581 23.813953 23.813953 23.813953h338.15814C323.869767 928.744186 238.139535 866.827907 197.655814 762.046512z" fill="#D5F1FF" p-id="2000"></path><path d="M809.674419 288.148837h-428.651163c-14.288372 0-23.813953 9.525581-23.813954 23.813954s9.525581 23.813953 23.813954 23.813953h428.651163c14.288372 0 23.813953-9.525581 23.813953-23.813953 0-11.906977-9.525581-23.813953-23.813953-23.813954zM809.674419 690.604651h-428.651163c-14.288372 0-23.813953 9.525581-23.813954 23.813954s9.525581 23.813953 23.813954 23.813953h428.651163c14.288372 0 23.813953-9.525581 23.813953-23.813953s-9.525581-23.813953-23.813953-23.813954z" fill="#2EB9FF" p-id="2001"></path><path d="M940.651163 11.906977H83.348837c-40.483721 0-71.44186 30.95814-71.44186 71.44186v857.302326c0 40.483721 30.95814 71.44186 71.44186 71.44186h857.302326c40.483721 0 71.44186-30.95814 71.44186-71.44186v-857.302326c0-40.483721-30.95814-71.44186-71.44186-71.44186z m23.813953 928.744186c0 14.288372-9.525581 23.813953-23.813953 23.813953H83.348837c-14.288372 0-23.813953-9.525581-23.813953-23.813953v-857.302326c0-4.762791 2.381395-9.525581 4.76279-11.906977 2.381395-2.381395 2.381395-4.762791 4.762791-4.76279 2.381395-2.381395 4.762791-2.381395 7.144186-4.762791 2.381395 0 4.762791-2.381395 9.525582-2.381395h857.302325c14.288372 0 23.813953 9.525581 23.813954 23.813953v857.302326z" fill="#2EB9FF" p-id="2002"></path><path d="M809.674419 490.567442h-428.651163c-14.288372 0-23.813953 9.525581-23.813954 23.813953s9.525581 23.813953 23.813954 23.813954h428.651163c14.288372 0 23.813953-9.525581 23.813953-23.813954s-9.525581-23.813953-23.813953-23.813953z" fill="#2EB9FF" p-id="2003"></path><path d="M226.232558 714.418605m-35.72093 0a35.72093 35.72093 0 1 0 71.44186 0 35.72093 35.72093 0 1 0-71.44186 0Z" fill="#2EB9FF" p-id="2004"></path><path d="M226.232558 311.962791m-35.72093 0a35.72093 35.72093 0 1 0 71.44186 0 35.72093 35.72093 0 1 0-71.44186 0Z" fill="#2EB9FF" p-id="2005"></path><path d="M226.232558 514.381395m-35.72093 0a35.72093 35.72093 0 1 0 71.44186 0 35.72093 35.72093 0 1 0-71.44186 0Z" fill="#2EB9FF" p-id="2006"></path></svg>