<svg xmlns="http://www.w3.org/2000/svg" width="723" height="673" viewBox="0 0 723 673">
    <g fill="none" fill-rule="evenodd" opacity=".5">
        <g stroke="#FFF">
            <path d="M168.477 340.405C183.331 433.12 263.2 503.93 359.5 503.93c106.867 0 193.5-87.204 193.5-194.776m-2.544-31.662C535.432 184.98 455.656 114.38 359.5 114.38c-95.477 0-174.803 69.606-190.628 161.155" opacity=".5"/>
            <path d="M205.113 336.078c10.166 59.633 54.23 110.473 116.356 125.963 83.94 20.928 169.063-30.601 190.13-115.094m1.794-68.841C502 220.175 458.516 171.214 397.757 156.066c-74.993-18.699-150.93 20.439-181.29 89.248" opacity=".4"/>
            <path d="M131.078 337.47c14.103 116.226 113.495 205.288 232.364 203.214 117.272-2.047 212.503-92.084 224.68-206.513m-2.401-66.6C565.943 157.916 469.655 75.653 355.359 77.648c-113.487 1.98-206.332 86.362-223.243 195.51" opacity=".3"/>
            <path d="M628.952 276.374c16.95 136.443-71.001 266.164-207.038 297.57-145.372 33.563-290.606-57.855-324.39-204.186m-6.383-81.14C99.415 172.91 181.33 71.333 299.574 44.034 429.452 14.05 559.22 83.823 609.498 203.388" opacity=".25"/>
            <path d="M674.62 320.416c-5.348 159.672-129.866 292.56-291.7 303.877-172.937 12.093-323-119.223-335.172-293.301m.534-51.525C62.126 128.057 183.233 4.78 338.839-6.102c154.506-10.804 290.752 92.86 326.72 239.22" opacity=".2"/>
            <path d="M721.467 303.162c3.462 183.426-131.343 343.301-316.247 366.004C207.628 693.428 27.652 551.86 3.23 352.964M.745 293.846C7.522 119.382 138.995-29.266 316.783-51.096 493.315-72.77 655.787 37.918 705.83 203.596" opacity=".15"/>
        </g>
        <g fill="#B8DDFE" opacity=".404">
            <g transform="translate(507 239.197)">
                <ellipse cx="34" cy="2.013" rx="2" ry="2.013"/>
                <ellipse cx="2" cy="22.145" rx="2" ry="2.013"/>
                <ellipse cx="77" cy="17.112" rx="2" ry="2.013"/>
                <ellipse cx="65" cy="158.036" rx="2" ry="2.013"/>
                <ellipse cx="116" cy="135.891" rx="2" ry="2.013"/>
                <ellipse cx="167" cy="92.607" rx="2" ry="2.013"/>
                <ellipse cx="210" cy="125.825" rx="2" ry="2.013"/>
            </g>
            <g transform="matrix(-1 0 0 1 180 239.197)">
                <ellipse cx="2" cy="2.013" rx="2" ry="2.013"/>
                <ellipse cx="44" cy="15.099" rx="2" ry="2.013"/>
                <ellipse cx="34" cy="157.029" rx="2" ry="2.013"/>
                <ellipse cx="81" cy="137.904" rx="2" ry="2.013"/>
                <ellipse cx="132" cy="93.613" rx="2" ry="2.013"/>
                <ellipse cx="175" cy="125.825" rx="2" ry="2.013"/>
            </g>
        </g>
    </g>
</svg>
