<?xml version="1.0" standalone="no"?><!DOCTYPE svg PUBLIC "-//W3C//DTD SVG 1.1//EN" "http://www.w3.org/Graphics/SVG/1.1/DTD/svg11.dtd"><svg t="1523344350494" class="icon" style="" viewBox="0 0 1217 1024" version="1.1" xmlns="http://www.w3.org/2000/svg" p-id="2113" xmlns:xlink="http://www.w3.org/1999/xlink" width="237.6953125" height="200"><defs><style type="text/css"></style></defs><path d="M55.351351 96.864865v166.054054h44.281081c-11.07027-63.654054-16.605405-127.308108-22.14054-193.72973-11.07027 2.767568-22.140541 13.837838-22.140541 27.675676zM910.52973 943.740541H542.443243c16.605405 2.767568 35.978378 8.302703 52.583784 11.07027h392.994595c16.605405-2.767568 30.443243-8.302703 44.281081-11.07027 99.632432-33.210811 58.118919-33.210811-121.772973 0zM542.443243 943.740541c-138.378378-33.210811-262.918919-94.097297-315.502702-207.567568-58.118919-127.308108-96.864865-268.454054-119.005406-417.902703H55.351351v608.864865c0 2.767568 0 8.302703 2.767568 11.07027l5.535135 5.535136h478.789189z" fill="#D5F1FF" p-id="2114"></path><path d="M1134.702703 13.837838H83.027027c-47.048649 0-83.027027 35.978378-83.027027 83.027027v830.27027c0 47.048649 35.978378 83.027027 83.027027 83.027027h1051.675676c47.048649 0 83.027027-35.978378 83.027027-83.027027v-830.27027c0-47.048649-35.978378-83.027027-83.027027-83.027027z m27.675675 913.297297c0 16.605405-11.07027 27.675676-27.675675 27.675676H83.027027c-11.07027 0-22.140541-8.302703-24.908108-16.605406-2.767568-2.767568-2.767568-8.302703-2.767568-11.07027v-608.864865h1107.027027v608.864865z m0-664.216216H55.351351v-166.054054c0-13.837838 11.07027-24.908108 22.140541-27.675676H1134.702703c16.605405 0 27.675676 11.07027 27.675675 27.675676v166.054054z" fill="#2EB9FF" p-id="2115"></path><path d="M774.918919 678.054054h276.756757c16.605405 0 27.675676-11.07027 27.675675-27.675676s-11.07027-27.675676-27.675675-27.675675H774.918919c-16.605405 0-27.675676 11.07027-27.675676 27.675675s11.07027 27.675676 27.675676 27.675676z" fill="#2EB9FF" p-id="2116"></path></svg>